<svg width="61" height="61" viewBox="0 0 61 61" fill="none" xmlns="http://www.w3.org/2000/svg">
<path d="M30.5 55.9167V48.2917M43.2083 35.5833L50.8333 43.9708C51.1816 44.3261 51.418 44.7758 51.5132 45.2641C51.6084 45.7524 51.5581 46.2579 51.3687 46.718C51.1793 47.178 50.859 47.5724 50.4475 47.8521C50.0361 48.1318 49.5516 48.2847 49.0542 48.2917H11.9458C11.4484 48.2847 10.9639 48.1318 10.5525 47.8521C10.141 47.5724 9.82074 47.178 9.63131 46.718C9.44188 46.2579 9.39163 45.7524 9.4868 45.2641C9.58196 44.7758 9.81835 44.3261 10.1667 43.9708L17.7917 35.5833H17.0292C16.5317 35.5763 16.0472 35.4235 15.6358 35.1438C15.2244 34.864 14.9041 34.4697 14.7146 34.0097C14.5252 33.5496 14.475 33.0441 14.5701 32.5558C14.6653 32.0674 14.9017 31.6178 15.25 31.2625L22.875 22.875H22.3667C21.8475 22.9218 21.3265 22.8079 20.8743 22.5487C20.4221 22.2895 20.0605 21.8975 19.8386 21.4258C19.6166 20.9542 19.545 20.4257 19.6336 19.9121C19.7221 19.3984 19.9664 18.9243 20.3333 18.5542L30.5 7.625L40.6667 18.5542C41.0336 18.9243 41.2779 19.3984 41.3664 19.9121C41.4549 20.4257 41.3834 20.9542 41.1614 21.4258C40.9395 21.8975 40.5779 22.2895 40.1257 22.5487C39.6735 22.8079 39.1525 22.9218 38.6333 22.875H38.125L45.75 31.2625C46.0983 31.6178 46.3347 32.0674 46.4299 32.5558C46.525 33.0441 46.4748 33.5496 46.2854 34.0097C46.0959 34.4697 45.7756 34.864 45.3642 35.1438C44.9528 35.4235 44.4683 35.5763 43.9708 35.5833H43.2083Z" stroke="#1E5E39" stroke-width="4" stroke-linecap="round" stroke-linejoin="round"/>
</svg>
